<svg width="54" height="56" viewBox="0 0 54 56" fill="none" xmlns="http://www.w3.org/2000/svg">
<path d="M13.4646 55.3055C13.4483 55.7214 13.0846 56.0352 12.671 55.9968C9.34086 55.6843 6.2559 54.2005 3.91575 51.7709C1.39085 49.1496 0 45.7009 0 42.0595C0 41.6597 0.32302 41.3367 0.722729 41.3367H2.06593C2.46564 41.3367 2.78866 41.6597 2.78866 42.0595C2.78866 47.8738 7.16338 52.6493 12.8685 53.2152C13.2485 53.2523 13.5332 53.58 13.518 53.9623L13.4646 55.3055Z" fill="#00C2FF"/>
<path d="M2.06593 14.6634H0.722729C0.32302 14.6634 0 14.3404 0 13.9407C0 10.2992 1.39085 6.85061 3.91459 4.22929C6.25474 1.79969 9.33854 0.315908 12.6687 0.00334816C13.0835 -0.0361575 13.446 0.278726 13.4623 0.694697L13.5157 2.03905C13.5308 2.42017 13.2462 2.74783 12.8662 2.78617C7.16222 3.35203 2.7875 8.12757 2.7875 13.9407C2.78866 14.3404 2.46564 14.6634 2.06593 14.6634Z" fill="#00C2FF"/>
<path d="M52.7259 14.6634H51.3827C50.983 14.6634 50.66 14.3404 50.66 13.9407C50.66 8.12642 46.2852 3.35088 40.5813 2.78618C40.2013 2.749 39.9166 2.42134 39.9317 2.03906L39.9852 0.694706C40.0014 0.278734 40.3651 -0.034987 40.7788 0.0033567C44.1078 0.317078 47.1927 1.7997 49.5329 4.2293C52.0578 6.85062 53.4486 10.2992 53.4486 13.9407C53.4486 14.3404 53.1256 14.6634 52.7259 14.6634Z" fill="url(#paint0_linear_32_5884)"/>
<path d="M39.9842 55.3055L39.9307 53.9611C39.9156 53.58 40.2003 53.2523 40.5803 53.214C46.2843 52.6481 50.6601 47.8726 50.6601 42.0583C50.6601 41.6586 50.9832 41.3356 51.3829 41.3356H52.7261C53.1258 41.3356 53.4488 41.6586 53.4488 42.0583C53.4488 45.6986 52.058 49.1472 49.533 51.7697C47.1929 54.1993 44.1079 55.6831 40.779 55.9956C40.3642 56.0363 40.0005 55.7214 39.9842 55.3055Z" fill="url(#paint1_linear_32_5884)"/>
<path d="M33.1558 39.6219H20.1779C17.5042 39.6219 15.3379 38.0176 15.3379 36.0376V22.059C15.3379 20.079 17.5042 18.4747 20.1779 18.4747H33.1558C35.8295 18.4747 37.9958 20.079 37.9958 22.059V36.0376C37.9958 38.0176 35.8295 39.6219 33.1558 39.6219Z" fill="url(#paint2_linear_32_5884)"/>
<defs>
<linearGradient id="paint0_linear_32_5884" x1="39.9315" y1="7.33173" x2="53.4486" y2="7.33173" gradientUnits="userSpaceOnUse">
<stop offset="0.00402023" stop-color="#00C2FF"/>
<stop offset="0.0122" stop-color="#05BEFF"/>
<stop offset="0.0719" stop-color="#24A5FF"/>
<stop offset="0.1395" stop-color="#4090FF"/>
<stop offset="0.2159" stop-color="#567EFF"/>
<stop offset="0.3052" stop-color="#6771FF"/>
<stop offset="0.4155" stop-color="#7268FF"/>
<stop offset="0.5703" stop-color="#7962FF"/>
<stop offset="1" stop-color="#7B61FF"/>
</linearGradient>
<linearGradient id="paint1_linear_32_5884" x1="39.9305" y1="48.6684" x2="53.4488" y2="48.6684" gradientUnits="userSpaceOnUse">
<stop offset="0.00402023" stop-color="#00C2FF"/>
<stop offset="0.0122" stop-color="#05BEFF"/>
<stop offset="0.0719" stop-color="#24A5FF"/>
<stop offset="0.1395" stop-color="#4090FF"/>
<stop offset="0.2159" stop-color="#567EFF"/>
<stop offset="0.3052" stop-color="#6771FF"/>
<stop offset="0.4155" stop-color="#7268FF"/>
<stop offset="0.5703" stop-color="#7962FF"/>
<stop offset="1" stop-color="#7B61FF"/>
</linearGradient>
<linearGradient id="paint2_linear_32_5884" x1="15.338" y1="29.0483" x2="37.9971" y2="29.0483" gradientUnits="userSpaceOnUse">
<stop offset="0.00402023" stop-color="#00C2FF"/>
<stop offset="0.1541" stop-color="#0BBAFF"/>
<stop offset="0.4155" stop-color="#27A3FF"/>
<stop offset="0.7545" stop-color="#557FFF"/>
<stop offset="1" stop-color="#7B61FF"/>
</linearGradient>
</defs>
</svg>
